<svg width="32" height="31" viewBox="0 0 32 31" fill="none" xmlns="http://www.w3.org/2000/svg">
<path fill-rule="evenodd" clip-rule="evenodd" d="M0 0.87146H32V30.1286H0V0.87146ZM3 6.62854C3 5.52397 3.89543 4.62854 5 4.62854H9.5C11.27 4.62854 12.9106 5.12709 14.1351 6.21803C15.383 7.32983 16 8.8827 16 10.566C16 11.8505 15.6408 13.059 14.9161 14.0536C14.9746 14.1015 15.0323 14.1507 15.0892 14.201C15.8319 14.8582 16.3699 15.6629 16.7056 16.566C16.9563 15.4594 17.439 14.4254 18.1685 13.5632C19.1405 12.4145 20.4837 11.6559 22.0635 11.441H19.625C18.5204 11.441 17.625 10.5456 17.625 9.44104C17.625 8.33647 18.5204 7.44104 19.625 7.44104H26.375C27.4796 7.44104 28.375 8.33647 28.375 9.44104C28.375 10.5456 27.4796 11.441 26.375 11.441H23.9774C25.8228 11.6836 27.2216 12.6134 28.1431 13.9036C29.155 15.3202 29.5 17.0304 29.5 18.441C29.5 19.2837 28.9789 20.0046 28.2413 20.2992C28.9982 20.9481 29.1686 22.0749 28.6016 22.9254L26.9375 21.816C28.6016 22.9254 28.601 22.9264 28.6003 22.9273L28.599 22.9293L28.5964 22.9333L28.5906 22.9418L28.5776 22.9607C28.5683 22.9741 28.5576 22.9893 28.5455 23.006C28.5214 23.0394 28.4917 23.0791 28.4563 23.1242C28.3855 23.2143 28.2912 23.3265 28.1718 23.453C27.9334 23.7054 27.5912 24.0183 27.1328 24.3239C26.1996 24.9461 24.8335 25.5035 23 25.5035C21.0139 25.5035 19.3274 24.6884 18.1685 23.3189C17.5758 22.6183 17.1459 21.8043 16.8711 20.9301C16.5619 22.0414 15.9693 23.0273 15.0892 23.8061C13.7569 24.9849 11.9773 25.5035 10.0799 25.5035H5C3.89543 25.5035 3 24.6081 3 23.5035V14.5035V6.62854ZM7 16.5035V21.5035H10.0799C11.2797 21.5035 12.0226 21.1785 12.4386 20.8104C12.8243 20.4691 13.125 19.9212 13.125 19.0035C13.125 18.0858 12.8243 17.538 12.4386 17.1967C12.0226 16.8286 11.2797 16.5035 10.0799 16.5035H9.5H7ZM7 8.62854V12.5035H9.5C10.5425 12.5035 11.1519 12.2146 11.4743 11.9274C11.7732 11.6611 12 11.2452 12 10.566C12 9.88688 11.7732 9.471 11.4743 9.20467C11.1519 8.91749 10.5425 8.62854 9.5 8.62854H7ZM25.4847 20.441C25.4211 20.5084 25.3615 20.5809 25.3065 20.6585C25.2997 20.6668 25.2855 20.6834 25.2637 20.7065C25.2033 20.7705 25.0885 20.8794 24.914 20.9957C24.5817 21.2173 23.979 21.5035 23 21.5035C22.1736 21.5035 21.6101 21.1936 21.2221 20.7351C21.147 20.6464 21.0756 20.5483 21.0089 20.441H25.4847ZM25.0239 16.441H21.0089C21.0756 16.3338 21.147 16.2357 21.2221 16.147C21.6101 15.6884 22.1736 15.3785 23 15.3785C24.0403 15.3785 24.5597 15.7687 24.8882 16.2285C24.936 16.2955 24.9813 16.3665 25.0239 16.441Z" fill="#302F2F"/>
</svg>
