<svg width="32" height="33" viewBox="0 0 32 33" fill="none" xmlns="http://www.w3.org/2000/svg">
<g clip-path="url(#clip0_80_313)">
<path fill-rule="evenodd" clip-rule="evenodd" d="M32 0.5H0V32.5H32V0.5ZM17.6133 23.6733C13.84 21.74 10.7467 18.66 8.82667 14.8867L11.76 11.9533C12.1333 11.58 12.24 11.06 12.0933 10.5933C11.5875 9.05741 11.331 7.4504 11.3333 5.83333C11.3333 5.1 10.7333 4.5 10 4.5H5.33333C4.6 4.5 4 5.1 4 5.83333C4 18.3533 14.1467 28.5 26.6667 28.5C27.4 28.5 28 27.9 28 27.1667V22.5133C28 21.78 27.4 21.18 26.6667 21.18C25.0133 21.18 23.4 20.9133 21.9067 20.42C21.44 20.26 20.9067 20.38 20.5467 20.74L17.6133 23.6733Z" fill="#302F2F"/>
</g>
<defs>
<clipPath id="clip0_80_313">
<rect width="32" height="32" fill="white" transform="translate(0 0.5)"/>
</clipPath>
</defs>
</svg>
