<svg width="32" height="33" viewBox="0 0 32 33" fill="none" xmlns="http://www.w3.org/2000/svg">
<g clip-path="url(#clip0_80_330)">
<path d="M0 0.5V32.5H32V0.5H0ZM14.2051 9.05664C15.1111 9.04725 15.9973 9.14771 16.4297 9.16016C18.0323 9.20629 18.3154 10.0169 18.2949 10.6836C18.2649 11.6601 17.6367 15.7905 18.8008 16.1934C20.497 15.2863 21.6345 12.4691 22.4629 10.6836C22.8819 9.78045 22.8156 9.73557 23.7812 9.73437L27.6171 9.72851C28.5409 9.72736 28.5049 9.69496 28.8008 10.0723C29.489 10.9498 26.6289 14.6001 25.705 15.6094C24.0003 17.472 24.9949 18.1933 25.2695 18.4492C26.5418 19.6354 27.7711 20.8655 28.5351 22C29.1426 22.9019 28.8917 23.7417 28.1191 23.7734L24.0058 23.9434C22.6409 23.9995 20.5185 21.5526 20.1797 21.0195C19.9057 20.5798 18.5853 20.0287 18.4609 21.1523L18.2871 22.7206C18.1608 23.8417 17.3331 23.8156 16.6797 23.8437C12.1552 24.0383 10.6143 22.3157 8.33589 19.7733C6.666 17.4117 5.07243 15.0366 3.75192 12.1913C3.35667 11.3396 3.14731 10.7149 3.09371 10.0526C3.75813 9.53333 6.09032 9.75701 7.65621 9.72256C8.08451 9.71312 8.37349 9.95853 8.59957 10.4472C9.48173 12.3542 10.4438 14.2269 11.7168 15.8827C12.2711 16.3933 12.7612 16.5811 13.0058 15.5429C13.1479 15.5298 13.1365 13.8105 13.1445 12.5136C13.15 11.6231 13.0454 10.5551 11.5371 10.0624C11.8422 9.26269 13.0402 9.06872 14.2051 9.05664Z" fill="#302F2F"/>
</g>
<defs>
<clipPath id="clip0_80_330">
<rect width="32" height="32" fill="white" transform="translate(0 0.5)"/>
</clipPath>
</defs>
</svg>
